<?xml version="1.0" encoding="UTF-8" standalone="no"?>
<!DOCTYPE svg PUBLIC "-//W3C//DTD SVG 1.1//EN"
 "http://www.w3.org/Graphics/SVG/1.1/DTD/svg11.dtd">
<!-- Generated by graphviz version 2.40.1 (20161225.0304)
 -->
<!-- Title: UmlClassDiagram Pages: 1 -->
<svg width="493pt" height="592pt"
 viewBox="0.00 0.00 492.87 591.80" xmlns="http://www.w3.org/2000/svg" xmlns:xlink="http://www.w3.org/1999/xlink">
<g id="graph0" class="graph" transform="scale(1 1) rotate(0) translate(4 587.8)">
<title>UmlClassDiagram</title>
<polygon fill="#ffffff" stroke="transparent" points="-4,4 -4,-587.8 488.874,-587.8 488.874,4 -4,4"/>
<!-- 0 -->
<g id="node1" class="node">
<title>0</title>
<polygon fill="#f2f2f2" stroke="#000000" points="133.3647,-458.5 133.3647,-583.3 351.5093,-583.3 351.5093,-458.5 133.3647,-458.5"/>
<text text-anchor="middle" x="242.437" y="-566.7" font-family="Times,serif" font-size="14.00" fill="#000000">&lt;&lt;Abstract&gt;&gt;</text>
<text text-anchor="middle" x="242.437" y="-549.9" font-family="Times,serif" font-size="14.00" fill="#000000">Context</text>
<polyline fill="none" stroke="#000000" points="133.3647,-541.7 351.5093,-541.7 "/>
<text text-anchor="middle" x="242.437" y="-525.1" font-family="Times,serif" font-size="14.00" fill="#000000"> </text>
<polyline fill="none" stroke="#000000" points="133.3647,-516.9 351.5093,-516.9 "/>
<text text-anchor="start" x="141.3647" y="-500.3" font-family="Times,serif" font-size="14.00" fill="#000000">Internal:</text>
<text text-anchor="start" x="141.3647" y="-483.5" font-family="Times,serif" font-size="14.00" fill="#000000"> &#160;&#160;&#160;_msgSender(): (payable: address)</text>
<text text-anchor="start" x="141.3647" y="-466.7" font-family="Times,serif" font-size="14.00" fill="#000000"> &#160;&#160;&#160;_msgData(): bytes</text>
</g>
<!-- 1 -->
<g id="node2" class="node">
<title>1</title>
<polygon fill="#f2f2f2" stroke="#000000" points="0,-229.5 0,-421.5 484.874,-421.5 484.874,-229.5 0,-229.5"/>
<text text-anchor="middle" x="242.437" y="-404.9" font-family="Times,serif" font-size="14.00" fill="#000000">Ownable</text>
<polyline fill="none" stroke="#000000" points="0,-396.7 484.874,-396.7 "/>
<text text-anchor="start" x="8" y="-380.1" font-family="Times,serif" font-size="14.00" fill="#000000">Private:</text>
<text text-anchor="start" x="8" y="-363.3" font-family="Times,serif" font-size="14.00" fill="#000000"> &#160;&#160;_owner: address</text>
<polyline fill="none" stroke="#000000" points="0,-355.1 484.874,-355.1 "/>
<text text-anchor="start" x="8" y="-338.5" font-family="Times,serif" font-size="14.00" fill="#000000">Public:</text>
<text text-anchor="start" x="8" y="-321.7" font-family="Times,serif" font-size="14.00" fill="#000000"> &#160;&#160;&#160;&lt;&lt;event&gt;&gt; OwnershipTransferred(previousOwner: address, newOwner: address)</text>
<text text-anchor="start" x="8" y="-304.9" font-family="Times,serif" font-size="14.00" fill="#000000"> &#160;&#160;&#160;&lt;&lt;modifier&gt;&gt; onlyOwner()</text>
<text text-anchor="start" x="8" y="-288.1" font-family="Times,serif" font-size="14.00" fill="#000000"> &#160;&#160;&#160;constructor()</text>
<text text-anchor="start" x="8" y="-271.3" font-family="Times,serif" font-size="14.00" fill="#000000"> &#160;&#160;&#160;owner(): address</text>
<text text-anchor="start" x="8" y="-254.5" font-family="Times,serif" font-size="14.00" fill="#000000"> &#160;&#160;&#160;renounceOwnership()</text>
<text text-anchor="start" x="8" y="-237.7" font-family="Times,serif" font-size="14.00" fill="#000000"> &#160;&#160;&#160;transferOwnership(newOwner: address)</text>
</g>
<!-- 1&#45;&gt;0 -->
<g id="edge1" class="edge">
<title>1&#45;&gt;0</title>
<path fill="none" stroke="#000000" d="M242.437,-421.7689C242.437,-423.9048 242.437,-426.0416 242.437,-428.1752"/>
<polygon fill="none" stroke="#000000" points="231.9371,-428.3378 242.437,-458.3379 252.9371,-428.3379 231.9371,-428.3378"/>
</g>
<!-- 2 -->
<g id="node3" class="node">
<title>2</title>
<polygon fill="#f2f2f2" stroke="#000000" points="118.7333,-.5 118.7333,-192.5 366.1407,-192.5 366.1407,-.5 118.7333,-.5"/>
<text text-anchor="middle" x="242.437" y="-175.9" font-family="Times,serif" font-size="14.00" fill="#000000">Project</text>
<polyline fill="none" stroke="#000000" points="118.7333,-167.7 366.1407,-167.7 "/>
<text text-anchor="start" x="126.7333" y="-151.1" font-family="Times,serif" font-size="14.00" fill="#000000">Private:</text>
<text text-anchor="start" x="126.7333" y="-134.3" font-family="Times,serif" font-size="14.00" fill="#000000"> &#160;&#160;_creator: address</text>
<polyline fill="none" stroke="#000000" points="118.7333,-126.1 366.1407,-126.1 "/>
<text text-anchor="start" x="126.7333" y="-109.5" font-family="Times,serif" font-size="14.00" fill="#000000">Public:</text>
<text text-anchor="start" x="126.7333" y="-92.7" font-family="Times,serif" font-size="14.00" fill="#000000"> &#160;&#160;&#160;&lt;&lt;event&gt;&gt; WorkDone(value: uint256)</text>
<text text-anchor="start" x="126.7333" y="-75.9" font-family="Times,serif" font-size="14.00" fill="#000000"> &#160;&#160;&#160;&lt;&lt;modifier&gt;&gt; onlyCreator()</text>
<text text-anchor="start" x="126.7333" y="-59.1" font-family="Times,serif" font-size="14.00" fill="#000000"> &#160;&#160;&#160;constructor()</text>
<text text-anchor="start" x="126.7333" y="-42.3" font-family="Times,serif" font-size="14.00" fill="#000000"> &#160;&#160;&#160;creator(): address</text>
<text text-anchor="start" x="126.7333" y="-25.5" font-family="Times,serif" font-size="14.00" fill="#000000"> &#160;&#160;&#160;creatorDoesWork(value: uint256)</text>
<text text-anchor="start" x="126.7333" y="-8.7" font-family="Times,serif" font-size="14.00" fill="#000000"> &#160;&#160;&#160;ownerDoesWork(value: uint256)</text>
</g>
<!-- 2&#45;&gt;1 -->
<g id="edge2" class="edge">
<title>2&#45;&gt;1</title>
<path fill="none" stroke="#000000" d="M242.437,-192.6213C242.437,-194.7986 242.437,-196.9851 242.437,-199.1774"/>
<polygon fill="none" stroke="#000000" points="231.9371,-199.2576 242.437,-229.2576 252.9371,-199.2577 231.9371,-199.2576"/>
</g>
</g>
</svg>
